<?xml version="1.0" encoding="UTF-8"?>
<svg version="1.1" xmlns="http://www.w3.org/2000/svg" width="652" height="652">
<path d="M0 0 C1.07933807 -0.00570007 2.15867615 -0.01140015 3.27072144 -0.01727295 C5.54814697 -0.02666439 7.82558574 -0.03323343 10.10302734 -0.03710938 C13.4973296 -0.04671272 16.89099816 -0.07775087 20.28515625 -0.109375 C35.53721645 -0.18339159 50.34618964 0.95503855 65.4296875 3.203125 C66.1357312 3.30790161 66.8417749 3.41267822 67.56921387 3.52062988 C71.22880622 4.07866215 74.86167982 4.73101783 78.4921875 5.453125 C79.55324707 5.66146973 80.61430664 5.86981445 81.70751953 6.08447266 C93.15717687 8.42324876 104.31019399 11.62997305 115.4296875 15.203125 C116.30850586 15.48414063 117.18732422 15.76515625 118.09277344 16.0546875 C130.95407905 20.2232894 143.22715298 25.39910203 155.4296875 31.203125 C156.24937012 31.58839355 157.06905273 31.97366211 157.91357422 32.37060547 C186.50184335 45.87984266 212.37565496 63.99333784 235.5078125 85.50390625 C238.21846779 88.00800091 240.9724236 90.45239345 243.7421875 92.890625 C247.29042265 96.07840451 250.48471182 99.37012611 253.55078125 103.01953125 C254.91671905 104.60697248 256.33299436 106.15152205 257.77734375 107.66796875 C308.02292063 160.42952444 340.3240366 238.95573826 340.6328125 311.7734375 C340.63851257 312.85277557 340.64421265 313.93211365 340.65008545 315.04415894 C340.65947689 317.32158447 340.66604593 319.59902324 340.66992188 321.87646484 C340.67952522 325.2707671 340.71056337 328.66443566 340.7421875 332.05859375 C340.81620409 347.31065395 339.67777395 362.11962714 337.4296875 377.203125 C337.27252258 378.26219055 337.27252258 378.26219055 337.11218262 379.34265137 C336.55415035 383.00224372 335.90179467 386.63511732 335.1796875 390.265625 C334.97134277 391.32668457 334.76299805 392.38774414 334.54833984 393.48095703 C332.20956374 404.93061437 329.00283945 416.08363149 325.4296875 427.203125 C325.14867187 428.08194336 324.86765625 428.96076172 324.578125 429.86621094 C320.4095231 442.72751655 315.23371047 455.00059048 309.4296875 467.203125 C309.04441895 468.02280762 308.65915039 468.84249023 308.26220703 469.68701172 C294.75296984 498.27528085 276.63947466 524.14909246 255.12890625 547.28125 C252.62481159 549.99190529 250.18041905 552.7458611 247.7421875 555.515625 C244.55440799 559.06386015 241.26268639 562.25814932 237.61328125 565.32421875 C236.02584002 566.69015655 234.48129045 568.10643186 232.96484375 569.55078125 C180.20328806 619.79635813 101.67707424 652.0974741 28.859375 652.40625 C27.78003693 652.41195007 26.70069885 652.41765015 25.58865356 652.42352295 C23.31122803 652.43291439 21.03378926 652.43948343 18.75634766 652.44335938 C15.3620454 652.45296272 11.96837684 652.48400087 8.57421875 652.515625 C-6.67784145 652.58964159 -21.48681464 651.45121145 -36.5703125 649.203125 C-37.62937805 649.04596008 -37.62937805 649.04596008 -38.70983887 648.88562012 C-42.36943122 648.32758785 -46.00230482 647.67523217 -49.6328125 646.953125 C-50.69387207 646.74478027 -51.75493164 646.53643555 -52.84814453 646.32177734 C-64.29780187 643.98300124 -75.45081899 640.77627695 -86.5703125 637.203125 C-87.88854004 636.78160156 -87.88854004 636.78160156 -89.23339844 636.3515625 C-102.09470405 632.1829606 -114.36777798 627.00714797 -126.5703125 621.203125 C-127.79983643 620.62522217 -127.79983643 620.62522217 -129.05419922 620.03564453 C-157.64246835 606.52640734 -183.51627996 588.41291216 -206.6484375 566.90234375 C-209.35909279 564.39824909 -212.1130486 561.95385655 -214.8828125 559.515625 C-218.43104765 556.32784549 -221.62533682 553.03612389 -224.69140625 549.38671875 C-226.05734405 547.79927752 -227.47361936 546.25472795 -228.91796875 544.73828125 C-279.16354563 491.97672556 -311.4646616 413.45051174 -311.7734375 340.6328125 C-311.77913757 339.55347443 -311.78483765 338.47413635 -311.79071045 337.36209106 C-311.80010189 335.08466553 -311.80667093 332.80722676 -311.81054688 330.52978516 C-311.82015022 327.1354829 -311.85118837 323.74181434 -311.8828125 320.34765625 C-311.95682909 305.09559605 -310.81839895 290.28662286 -308.5703125 275.203125 C-308.46553589 274.4970813 -308.36075928 273.7910376 -308.25280762 273.06359863 C-307.69477535 269.40400628 -307.04241967 265.77113268 -306.3203125 262.140625 C-306.11196777 261.07956543 -305.90362305 260.01850586 -305.68896484 258.92529297 C-303.35018874 247.47563563 -300.14346445 236.32261851 -296.5703125 225.203125 C-296.28929687 224.32430664 -296.00828125 223.44548828 -295.71875 222.54003906 C-291.5501481 209.67873345 -286.37433547 197.40565952 -280.5703125 185.203125 C-280.18504395 184.38344238 -279.79977539 183.56375977 -279.40283203 182.71923828 C-265.89359484 154.13096915 -247.78009966 128.25715754 -226.26953125 105.125 C-223.76543659 102.41434471 -221.32104405 99.6603889 -218.8828125 96.890625 C-215.69503299 93.34238985 -212.40331139 90.14810068 -208.75390625 87.08203125 C-207.16646502 85.71609345 -205.62191545 84.29981814 -204.10546875 82.85546875 C-151.34391306 32.60989187 -72.81769924 0.3087759 0 0 Z " fill="#FE0000" transform="translate(311.5703125,-0.203125)"/>
<path d="M0 0 C8.95355469 3.12814461 18.02463307 4.91224496 27.48046875 5.53125 C27.48046875 6.19125 27.48046875 6.85125 27.48046875 7.53125 C25.36328125 9.2578125 25.36328125 9.2578125 22.60546875 11.15625 C21.70054687 11.78789062 20.795625 12.41953125 19.86328125 13.0703125 C17.48046875 14.53125 17.48046875 14.53125 15.48046875 14.53125 C15.48046875 15.19125 15.48046875 15.85125 15.48046875 16.53125 C16.21136719 16.62792969 16.94226563 16.72460938 17.6953125 16.82421875 C20.86041749 17.62770263 22.52064903 18.79518773 25.04296875 20.84375 C25.78675781 21.43800781 26.53054688 22.03226563 27.296875 22.64453125 C29.47464759 24.52622026 31.5435345 26.40106154 33.48046875 28.53125 C33.48046875 29.19125 33.48046875 29.85125 33.48046875 30.53125 C28.53046875 31.02625 28.53046875 31.02625 23.48046875 31.53125 C24.75921875 31.9025 26.03796875 32.27375 27.35546875 32.65625 C32.8101626 34.46869994 37.87354102 37.07845865 42.48046875 40.53125 C42.48046875 41.19125 42.48046875 41.85125 42.48046875 42.53125 C39.51046875 43.02625 39.51046875 43.02625 36.48046875 43.53125 C41.07521279 48.93007424 45.75723148 54.24458087 50.48046875 59.53125 C53.38984658 58.22673517 55.34991917 56.8784457 57.49609375 54.52734375 C58.02460938 53.95177734 58.553125 53.37621094 59.09765625 52.78320312 C59.63648438 52.18443359 60.1753125 51.58566406 60.73046875 50.96875 C61.56191406 50.06479492 61.56191406 50.06479492 62.41015625 49.14257812 C65.19136597 46.67576396 65.19136597 46.67576396 66.48046875 43.53125 C63.51046875 43.03625 63.51046875 43.03625 60.48046875 42.53125 C60.48046875 41.87125 60.48046875 41.21125 60.48046875 40.53125 C65.99520868 36.47429993 72.01736353 33.68561841 78.48046875 31.53125 C75.51046875 31.20125 72.54046875 30.87125 69.48046875 30.53125 C72.57805356 24.33608038 78.22293963 19.57062129 84.48046875 16.53125 C85.47046875 16.53125 86.46046875 16.53125 87.48046875 16.53125 C87.48046875 15.87125 87.48046875 15.21125 87.48046875 14.53125 C86.79984375 14.304375 86.11921875 14.0775 85.41796875 13.84375 C81.78159785 12.21898854 78.45217612 10.20321743 75.48046875 7.53125 C75.48046875 6.87125 75.48046875 6.21125 75.48046875 5.53125 C76.40085937 5.43328125 77.32125 5.3353125 78.26953125 5.234375 C89.60139771 3.89578385 100.03127089 1.12276746 110.79296875 -2.71875 C119.11354363 -5.51066704 126.48689394 -5.36922927 134.48046875 -1.46875 C135.13789062 -0.68757812 135.13789062 -0.68757812 135.80859375 0.109375 C139.07025795 2.88331371 143.93370308 1.96203399 148.03515625 2.02734375 C152.03572613 2.61246111 153.70576992 3.63114106 156.48046875 6.53125 C156.79296875 9.78125 156.79296875 9.78125 156.48046875 12.53125 C155.70703125 12.0053125 155.70703125 12.0053125 154.91796875 11.46875 C151.39966679 10.11555694 149.1182292 10.65316989 145.48046875 11.53125 C141.81850917 13.60405731 139.82022598 15.02161416 137.48046875 18.53125 C140.16990523 18.27410478 142.85614422 18.0009888 145.54296875 17.71875 C146.29513672 17.64849609 147.04730469 17.57824219 147.82226562 17.50585938 C154.66843725 16.76493171 160.42272783 15.32715698 165.10546875 9.90625 C167.30446291 7.55867515 168.25482966 6.60973316 171.35546875 5.53125 C172.05671875 5.53125 172.75796875 5.53125 173.48046875 5.53125 C173.81046875 5.86125 174.14046875 6.19125 174.48046875 6.53125 C174.39118093 11.17421644 174.00275017 13.00896858 170.66796875 16.34375 C162.71895745 21.79895383 155.03654857 21.73950378 145.60546875 22.09375 C144.53554688 22.13693359 143.465625 22.18011719 142.36328125 22.22460938 C139.73579121 22.33017817 137.10821453 22.43228791 134.48046875 22.53125 C139.64769254 25.37505543 142.78704053 25.63496641 148.48046875 24.53125 C149.8128802 24.33730731 151.14618333 24.14935025 152.48046875 23.96875 C153.96546875 23.7521875 153.96546875 23.7521875 155.48046875 23.53125 C154.43389745 26.56630677 153.61296762 27.45543725 150.77612305 29.07861328 C147.59665187 30.48003957 144.77445307 31.28801549 141.375 31.9609375 C140.22580078 32.19941406 139.07660156 32.43789062 137.89257812 32.68359375 C135.51311782 33.16129332 133.13291631 33.63531717 130.75195312 34.10546875 C119.65423635 36.42032992 110.13336613 40.09344034 101.48046875 47.53125 C100.87460937 48.03140625 100.26875 48.5315625 99.64453125 49.046875 C93.68686542 54.40617264 89.29750377 61.49509974 88.00390625 69.46875 C87.83117706 75.12170519 88.44984915 80.65241163 91.48046875 85.53125 C94.82764656 88.71903839 97.4564255 89.77834414 101.98046875 89.96875 C106.09638271 89.76087556 109.03704359 88.90885309 112.48046875 86.53125 C118.79878929 77.81632512 116.68614966 66.64557322 115.48046875 56.53125 C122.04067572 52.17434487 128.9455921 48.7270514 136.03466797 45.33740234 C137.97924816 44.40683411 139.91948516 43.46764398 141.859375 42.52734375 C160.24040533 33.66054348 160.24040533 33.66054348 166.48046875 34.53125 C168.35546875 35.90625 168.35546875 35.90625 169.48046875 37.53125 C169.48046875 38.19125 169.48046875 38.85125 169.48046875 39.53125 C188.43483349 35.39758535 207.04242987 27.01631572 218.03662109 10.31298828 C219.11568258 8.61359451 220.14899686 6.88540867 221.1796875 5.15625 C223.48046875 2.53125 223.48046875 2.53125 227.0703125 1.48046875 C230.48046875 1.53125 230.48046875 1.53125 232.22265625 2.67578125 C235.71677375 7.82056805 236.98126629 10.22120104 236.48046875 16.53125 C232.6116947 29.32617139 223.4560588 37.10867779 212.1484375 43.37890625 C200.86031052 49.24076712 190.14852005 52.75672905 177.53515625 54.13671875 C174.57000903 54.34941296 174.57000903 54.34941296 172.48046875 55.53125 C172.31369593 58.94781024 172.31369593 58.94781024 172.48046875 62.53125 C175.01381184 65.06459309 175.91843799 64.78810508 179.42578125 64.796875 C180.4209375 64.79945313 181.41609375 64.80203125 182.44140625 64.8046875 C184.00761719 64.79308594 184.00761719 64.79308594 185.60546875 64.78125 C186.62640625 64.78898437 187.64734375 64.79671875 188.69921875 64.8046875 C201.91459477 64.77071481 213.14795002 60.78724051 222.9609375 51.73828125 C225.42546492 49.78059752 227.38041216 49.39346971 230.48046875 49.53125 C232.85546875 50.96875 232.85546875 50.96875 234.48046875 53.53125 C235.32011984 59.82863319 234.09975417 64.31904554 230.48046875 69.53125 C224.77114104 76.46400508 215.18424449 80.01323651 206.48046875 81.34375 C205.14904934 81.43865201 203.81482915 81.49709818 202.48046875 81.53125 C201.51753906 81.56992188 200.55460937 81.60859375 199.5625 81.6484375 C192.65627233 81.79695853 186.15111119 81.19196564 179.35546875 79.96875 C176.67487873 79.56083413 174.18585873 79.45167971 171.48046875 79.53125 C170.52544717 81.25601911 170.52544717 81.25601911 170.48046875 83.53125 C175.80223259 90.22637226 184.11155857 94.92843241 192.48046875 96.53125 C204.58325293 97.76595108 214.27983771 95.78899845 223.91796875 88.21875 C224.49417969 87.70699219 225.07039063 87.19523437 225.6640625 86.66796875 C228.11708955 85.1328486 229.63807641 85.12133288 232.48046875 85.53125 C234.29296875 86.76953125 234.29296875 86.76953125 235.48046875 88.53125 C236.19865127 94.22060216 234.1134518 99.14758288 230.9375 103.7421875 C227.08694087 108.47021989 222.57905714 112.07417934 216.35253906 112.76855469 C202.07330916 113.55577984 190.63568667 111.83411327 177.85546875 105.21875 C174.64290573 103.61246849 172.99173002 103.09234234 169.48046875 103.53125 C168.89270241 106.2758844 168.89270241 106.2758844 169.48046875 109.53125 C176.48459234 118.70159739 191.49786927 125.06963288 202.48046875 127.53125 C209.7402424 128.30526998 216.09388279 126.81128338 222.5546875 123.453125 C225.36662808 122.10704391 227.40718325 122.14708931 230.48046875 122.53125 C232.85546875 124.09375 232.85546875 124.09375 234.48046875 126.53125 C234.95077885 130.22654362 234.77908881 132.7287086 233.48046875 136.21875 C229.77271233 140.50584336 225.99977048 142.21791976 220.37109375 142.91796875 C205.5988206 143.40257952 188.36939668 138.62432015 176.48046875 129.53125 C173.83112053 128.81691879 173.83112053 128.81691879 171.48046875 128.53125 C172.65248116 134.3481705 174.58924314 137.271741 179.29296875 140.96875 C179.86684326 141.43466553 180.44071777 141.90058105 181.03198242 142.38061523 C194.75005027 153.28069557 205.72341036 156.79298514 223.07617188 157.00976562 C224.11322266 157.03619141 225.15027344 157.06261719 226.21875 157.08984375 C227.15759033 157.10329834 228.09643066 157.11675293 229.0637207 157.13061523 C231.48046875 157.53125 231.48046875 157.53125 233.28198242 158.85180664 C235.33622039 161.73041797 234.88577344 164.11511046 234.48046875 167.53125 C232.16735786 171.98613024 229.95529228 174.32884752 225.48046875 176.53125 C217.73995083 177.55396092 210.57263298 176.71425203 203.48046875 173.53125 C202.58070313 173.14066406 201.6809375 172.75007812 200.75390625 172.34765625 C192.25441258 168.38944878 184.97737783 163.08155819 177.48046875 157.53125 C174.2525532 155.3793063 173.19646066 155.33038557 169.48046875 155.53125 C169.60980417 163.67938124 172.04103248 167.60596117 177.48046875 173.53125 C178.09277344 174.22347656 178.70507812 174.91570312 179.3359375 175.62890625 C186.54722456 183.34572684 196.85107078 190.90266919 207.48046875 192.53125 C210.26219888 192.62535828 213.01243877 192.67092298 215.79296875 192.65625 C216.51419922 192.66011719 217.23542969 192.66398438 217.97851562 192.66796875 C221.69065459 192.6613102 225.22648556 192.4605471 228.8984375 191.8984375 C230.08050781 191.77726563 231.26257813 191.65609375 232.48046875 191.53125 C234.48046875 193.53125 234.48046875 193.53125 234.79296875 197.28125 C234.66735478 201.35262048 233.85057089 204.13410359 231.48046875 207.53125 C226.30963971 211.40937178 220.66394308 211.23320053 214.48046875 210.53125 C196.83740384 206.77785758 184.07661701 195.66664245 171.9453125 182.91796875 C170.82311027 181.7565058 169.65653631 180.63813712 168.48046875 179.53125 C167.82046875 179.53125 167.16046875 179.53125 166.48046875 179.53125 C165.76194775 189.88100997 173.84973918 198.50520346 180.23046875 205.99609375 C180.97296875 206.83269531 181.71546875 207.66929687 182.48046875 208.53125 C183.14046875 209.27503906 183.80046875 210.01882813 184.48046875 210.78515625 C195.59665429 222.59610339 208.35555437 226.53691654 224.0625 227.04882812 C224.84238281 227.08298828 225.62226563 227.11714844 226.42578125 227.15234375 C227.13234863 227.1773999 227.83891602 227.20245605 228.56689453 227.22827148 C230.48046875 227.53125 230.48046875 227.53125 233.48046875 229.53125 C234.14177677 233.82975213 233.82054696 235.95311704 231.60546875 239.71875 C225.51171831 246.06782518 217.3361573 246.97642177 208.94921875 247.16015625 C197.81299878 245.14108934 190.82097242 237.52178144 183.29296875 229.71875 C182.24266095 228.65188658 181.19123374 227.58612401 180.13867188 226.52148438 C174.72645154 221.02250329 169.48124635 215.40918821 164.48046875 209.53125 C162.47845961 207.20147414 160.4565552 204.89154744 158.41796875 202.59375 C157.92748047 202.01818359 157.43699219 201.44261719 156.93164062 200.84960938 C154.44515385 198.07559194 152.79149374 196.61974708 149.171875 195.58984375 C148.28371094 195.57050781 147.39554687 195.55117188 146.48046875 195.53125 C144.87720833 197.13451042 145.23297326 198.81425409 145.16796875 201.03125 C145.23545549 207.77028344 147.68292489 212.558389 151.10546875 218.21875 C154.75212498 221.76944159 159.06895705 224.04340211 163.48046875 226.53125 C166.1510087 228.0738841 168.29743508 229.34821633 170.48046875 231.53125 C170.48046875 234.46875 170.48046875 234.46875 169.48046875 237.53125 C166.10128714 240.08624097 163.89567732 240.5176366 159.66796875 240.65625 C151.24956282 239.1621436 144.29672941 231.15813496 139.48046875 224.53125 C135.34044573 217.92335811 133.32351327 210.97196221 131.47265625 203.4375 C130.7121808 200.24646241 130.7121808 200.24646241 127.48046875 198.53125 C124.16960616 198.81399138 124.16960616 198.81399138 121.48046875 200.53125 C120.73402296 207.54784045 122.85654996 213.84092572 126.94140625 219.5859375 C129.12489484 222.16843923 131.39989683 224.45894187 133.91796875 226.71875 C134.43359375 227.316875 134.94921875 227.915 135.48046875 228.53125 C135.23046875 230.78125 135.23046875 230.78125 134.48046875 232.53125 C130.4264202 233.6368996 127.96124948 234.3027492 124.15625 232.3203125 C115.84159729 226.08079383 111.14822391 218.54884614 107.01513672 209.19116211 C105.43648253 205.65675431 105.43648253 205.65675431 102.33203125 203.55859375 C101.72101563 203.54957031 101.11 203.54054688 100.48046875 203.53125 C99.13334716 204.67690943 99.13334716 204.67690943 99.04296875 207.71875 C99.20803363 219.19075943 106.94784476 229.75716424 114.5390625 237.6796875 C121.1241571 243.99480496 128.19437821 247.36638695 136.92578125 249.8046875 C137.69792969 250.02036377 138.47007812 250.23604004 139.265625 250.45825195 C140.80742036 250.87700126 142.35442241 251.27709424 143.90625 251.65698242 C149.14621519 253.03915448 149.14621519 253.03915448 150.74609375 255.39453125 C150.33604854 258.69298313 148.50982179 259.9442452 146.10546875 262.15625 C142.86069072 265.01807885 142.86069072 265.01807885 140.48046875 268.53125 C141.4240625 268.64726562 142.36765625 268.76328125 143.33984375 268.8828125 C148.208923 269.58014295 152.95384153 270.74825383 157.73046875 271.90625 C158.66197754 272.12812988 159.59348633 272.35000977 160.55322266 272.57861328 C166.13869141 273.92057022 171.665177 275.36474582 177.12890625 277.1484375 C183.50452418 278.18632879 187.66453227 276.11964213 192.68554688 272.53320312 C193.38099609 272.01693359 194.07644531 271.50066406 194.79296875 270.96875 C196.20292474 269.94274956 197.61555776 268.92041461 199.03125 267.90234375 C199.64653564 267.44786865 200.26182129 266.99339355 200.89575195 266.52514648 C202.48046875 265.53125 202.48046875 265.53125 204.48046875 265.53125 C204.56296875 264.78875 204.64546875 264.04625 204.73046875 263.28125 C205.69591114 259.74129457 206.35490455 258.5133151 209.48046875 256.53125 C212.13404095 256.54411061 214.61965217 256.84604376 217.23828125 257.26953125 C219.51411873 257.74271483 219.51411873 257.74271483 221.48046875 256.53125 C225.72017933 256.29571052 228.84225177 256.20279114 232.48046875 258.53125 C231.94421875 258.77875 231.40796875 259.02625 230.85546875 259.28125 C225.17364506 262.27168352 221.88811781 265.05467116 218.48046875 270.53125 C215.72632667 271.90832104 213.3671225 271.60672393 210.29296875 271.65625 C205.3508056 271.96786869 202.73816474 272.46607541 199.29296875 276.09375 C198.78378906 276.73441406 198.27460938 277.37507813 197.75 278.03515625 C197.12158203 278.77572266 197.12158203 278.77572266 196.48046875 279.53125 C195.82046875 279.53125 195.16046875 279.53125 194.48046875 279.53125 C194.48046875 280.19125 194.48046875 280.85125 194.48046875 281.53125 C197.98207717 281.53757385 201.47964767 281.47751353 204.98046875 281.40625 C205.96273438 281.40882813 206.945 281.41140625 207.95703125 281.4140625 C214.35789545 281.24337279 218.00403419 280.2117131 222.79296875 275.88012695 C224.48046875 274.53125 224.48046875 274.53125 227.98046875 273.84375 C231.91048777 274.61571802 234.29320137 275.98058381 237.55078125 278.23046875 C239.65528243 279.71969854 239.65528243 279.71969854 242.91796875 281.15625 C245.48046875 282.53125 245.48046875 282.53125 246.48046875 285.53125 C245.34609375 285.44875 244.21171875 285.36625 243.04296875 285.28125 C238.58666069 285.24970092 235.53483701 286.720421 231.58203125 288.62890625 C228.69609154 289.8680365 226.57271988 290.02319904 223.48046875 289.53125 C222.72161377 289.03326904 221.96275879 288.53528809 221.1809082 288.0222168 C218.01308083 286.27319575 216.1168123 286.18299856 212.5234375 286.23828125 C211.41162109 286.24794922 210.29980469 286.25761719 209.15429688 286.26757812 C207.42856445 286.3052832 207.42856445 286.3052832 205.66796875 286.34375 C203.91323242 286.36405273 203.91323242 286.36405273 202.12304688 286.38476562 C199.24171675 286.42004722 196.36132971 286.4693472 193.48046875 286.53125 C193.48046875 287.19125 193.48046875 287.85125 193.48046875 288.53125 C194.22296875 288.82 194.96546875 289.10875 195.73046875 289.40625 C198.48046875 290.53125 198.48046875 290.53125 200.28515625 291.60546875 C203.12373496 292.80252062 205.2900913 292.62084888 208.35546875 292.46875 C214.55239253 292.37828396 218.08485811 293.27253139 222.66796875 297.59375 C226.47700281 303.7670121 227.94976373 310.33539358 227.48046875 317.53125 C226.86171875 316.7475 226.24296875 315.96375 225.60546875 315.15625 C223.58188214 312.56287353 223.58188214 312.56287353 221.48046875 310.53125 C218.19756748 310.26136189 214.93769076 310.21628825 211.64453125 310.16796875 C208.48046875 309.53125 208.48046875 309.53125 206.12890625 307.23828125 C204.48046875 304.53125 204.48046875 304.53125 204.015625 302.375 C203.6341326 300.32327205 203.6341326 300.32327205 201.4765625 299.1875 C200.63222656 298.8059375 199.78789062 298.424375 198.91796875 298.03125 C195.60680343 296.51028676 192.40757807 294.93838096 189.23046875 293.15625 C185.5208962 291.34202565 183.52186545 291.26336084 179.48046875 292.53125 C178.59746094 292.78261719 177.71445312 293.03398437 176.8046875 293.29296875 C170.6517773 295.22441208 167.66236284 296.67656487 164.48046875 302.53125 C160.45642935 305.40140823 155.5338995 304.88595886 150.79296875 304.921875 C148.57897462 304.95962519 148.57897462 304.95962519 145.48046875 305.53125 C143.93293918 307.44272568 143.93293918 307.44272568 143.48046875 309.53125 C142.82046875 309.53125 142.16046875 309.53125 141.48046875 309.53125 C141.06971091 306.17672763 140.81275771 303.58300399 142.67578125 300.6484375 C144.21110887 298.86622303 145.82804655 297.20437925 147.48046875 295.53125 C148.03734375 294.726875 148.59421875 293.9225 149.16796875 293.09375 C152.56959968 290.79535072 155.6381729 291.48445821 159.6484375 291.65625 C164.01182983 291.46365889 166.74230431 289.70618204 170.48046875 287.53125 C171.14046875 287.53125 171.80046875 287.53125 172.48046875 287.53125 C172.48046875 286.87125 172.48046875 286.21125 172.48046875 285.53125 C171.85390381 285.43038086 171.22733887 285.32951172 170.58178711 285.22558594 C161.31717905 283.64670565 152.30906296 281.2177039 143.24804688 278.74609375 C141.4469043 278.27623047 141.4469043 278.27623047 139.609375 277.796875 C138.5272876 277.50586914 137.4452002 277.21486328 136.33032227 276.91503906 C133.16695489 276.48902917 132.07950886 276.77177729 129.48046875 278.53125 C127.20750255 280.32847909 125.0022449 282.1909538 122.796875 284.0703125 C120.48046875 285.53125 120.48046875 285.53125 117.95703125 286.1484375 C115.48046875 285.53125 115.48046875 285.53125 113.375 282.8125 C112.66339226 281.56193411 111.97059651 280.30054951 111.29296875 279.03125 C110.50920977 277.65154907 109.72400293 276.27266982 108.9375 274.89453125 C108.33349365 273.81679443 108.33349365 273.81679443 107.71728516 272.71728516 C101.92101323 262.47255187 95.90030665 252.85337218 87.48046875 244.53125 C86.94808594 243.96535156 86.41570312 243.39945313 85.8671875 242.81640625 C83.17261106 240.19445991 80.96737338 239.18921428 77.29296875 238.96875 C73.54830313 239.14137132 73.54830313 239.14137132 71.7734375 241.19140625 C68.72263569 246.71234366 69.72062681 253.86855602 71.39453125 259.734375 C73.96398634 266.19945554 77.26473242 272.00752865 81.48046875 277.53125 C82.03089844 278.26988281 82.58132813 279.00851562 83.1484375 279.76953125 C88.78536785 286.72855614 95.83156864 291.07567149 103.48046875 295.53125 C104.104375 295.94632812 104.72828125 296.36140625 105.37109375 296.7890625 C109.45215095 298.22499004 114.00422522 297.55766418 118.28125 297.36523438 C121.62206137 297.28039766 124.00008108 297.26997332 126.97265625 298.88671875 C128.48046875 300.53125 128.48046875 300.53125 129.10546875 302.90625 C128.33915259 306.12477789 126.8699765 307.51306593 124.2421875 309.4609375 C118.60848728 312.88362899 111.90422337 313.37563705 105.48046875 312.53125 C102.32296302 310.95249714 100.08888799 309.09612433 97.515625 306.70703125 C96.47728516 305.75376953 96.47728516 305.75376953 95.41796875 304.78125 C94.78761719 304.16765625 94.15726563 303.5540625 93.5078125 302.921875 C91.00043777 301.2019802 89.45897896 301.26282274 86.48046875 301.53125 C86.15767875 305.11317777 86.15082577 307.00891716 88.09765625 310.09375 C96.07593276 318.70697586 102.9328548 323.83590561 114.81640625 325.01171875 C117.76901086 325.58751994 119.24393802 326.5650109 121.48046875 328.53125 C121.41796875 330.78125 121.41796875 330.78125 120.48046875 333.53125 C115.57817048 337.47440295 111.41127491 338.18268611 105.17578125 337.90234375 C95.5830685 336.58160794 89.04470107 329.09548232 82.48046875 322.53125 C80.41172841 321.8887265 80.41172841 321.8887265 78.48046875 321.53125 C79.30754105 328.24658331 80.47032201 333.43043907 84.45703125 338.97265625 C85.48046875 340.53125 85.48046875 340.53125 85.48046875 342.53125 C90.90309237 345.34298077 95.39407286 346.77754271 101.4921875 347.1875 C103.48046875 347.53125 103.48046875 347.53125 105.48046875 349.53125 C105.60546875 352.34375 105.60546875 352.34375 104.48046875 355.53125 C100.98918182 358.793739 97.55679488 360.36423388 92.85546875 361.09375 C85.42749009 359.85575356 80.76913245 354.35500585 76.48046875 348.53125 C74.32650313 344.93815131 72.35915705 341.27486332 70.48046875 337.53125 C69.16046875 337.53125 67.84046875 337.53125 66.48046875 337.53125 C64.07109305 342.35000141 64.8768047 349.53583577 66.41796875 354.59375 C69.11484418 360.91700646 74.69554211 365.74632336 79.48046875 370.53125 C79.1050855 373.51765415 77.95117584 375.63940633 76.30322266 378.11889648 C75.85250397 378.80318222 75.40178528 379.48746796 74.93740845 380.19248962 C74.44888397 380.92174149 73.9603595 381.65099335 73.45703125 382.40234375 C72.95505219 383.16168716 72.45307312 383.92103058 71.93588257 384.7033844 C70.33107324 387.12875452 68.71855566 389.54887916 67.10546875 391.96875 C65.50113462 394.38608478 63.8984001 396.80446999 62.29647827 399.22340393 C61.29988184 400.72712225 60.30160526 402.22972879 59.30142212 403.73106384 C58.84439911 404.41850174 58.3873761 405.10593964 57.91650391 405.81420898 C57.49089172 406.45405731 57.06527954 407.09390564 56.62677002 407.75314331 C55.62171568 409.31215218 54.69159735 410.91894549 53.77490234 412.53149414 C53.34773926 413.19141357 52.92057617 413.85133301 52.48046875 414.53125 C51.82046875 414.53125 51.16046875 414.53125 50.48046875 414.53125 C49.0388154 412.41451171 47.72010649 410.29552231 46.41796875 408.09375 C43.11674783 402.62005087 39.66217422 397.28503235 36.00390625 392.04296875 C35.61660843 391.48553482 35.22931061 390.92810089 34.83027649 390.35377502 C33.26237666 388.09867349 31.69394856 385.84450257 30.1010437 383.60696411 C28.9730965 382.02174022 27.86121818 380.42512026 26.75 378.828125 C26.09620361 377.90354492 25.44240723 376.97896484 24.76879883 376.02636719 C23.48046875 373.53125 23.48046875 373.53125 23.66943359 371.31860352 C24.77389257 368.88460467 26.32215752 367.51405299 28.29296875 365.71875 C33.6221294 360.59014916 37.24417919 355.38213574 37.61328125 347.8046875 C37.61070312 346.84820312 37.608125 345.89171875 37.60546875 344.90625 C37.60804688 343.94460938 37.610625 342.98296875 37.61328125 341.9921875 C37.64407958 339.52650231 37.64407958 339.52650231 36.48046875 337.53125 C34.04324549 337.68546992 34.04324549 337.68546992 31.48046875 338.53125 C30.11019038 340.48157208 30.11019038 340.48157208 29.23046875 342.96875 C26.21344782 349.60428653 21.60386108 356.40512583 14.98046875 359.8203125 C10.96962484 360.96089624 7.49312942 360.52714585 3.48046875 359.53125 C-0.17320856 357.47605652 -1.25040689 356.42833119 -2.45703125 352.40625 C-2.47765625 351.4575 -2.49828125 350.50875 -2.51953125 349.53125 C0.57644606 346.43527269 4.30321462 346.72689764 8.53515625 346.19140625 C11.62433347 345.49900446 13.07498509 344.51065023 15.48046875 342.53125 C16.14046875 342.53125 16.80046875 342.53125 17.48046875 342.53125 C21.01659712 335.49070742 23.90211509 329.48361277 24.48046875 321.53125 C20.62731158 322.82665104 18.56531341 324.22525482 15.91796875 327.28125 C10.07286527 333.31348486 2.71996296 337.76574798 -5.83203125 338.15625 C-10.66245434 337.82123679 -13.71655683 336.52508093 -17.51953125 333.53125 C-18.45703125 330.78125 -18.45703125 330.78125 -18.51953125 328.53125 C-15.4620653 325.89525716 -13.24918772 325.09973489 -9.26953125 324.59375 C0.96837282 322.88517263 7.22301521 317.856152 14.48046875 310.53125 C16.77060528 307.0960452 16.65889848 305.545919 16.48046875 301.53125 C13.02573421 301.09863566 11.78346376 301.30435389 8.9453125 303.4296875 C8.11128906 304.24695313 7.27726563 305.06421875 6.41796875 305.90625 C1.50678035 310.67365939 -1.32885769 312.8163449 -8.26953125 312.90625 C-14.7052134 312.80409632 -19.36229873 311.30113687 -24.20703125 307.05078125 C-25.51953125 305.53125 -25.51953125 305.53125 -25.95703125 303.03125 C-25.51953125 300.53125 -25.51953125 300.53125 -23.9609375 298.86328125 C-20.61188076 297.03603589 -17.69785836 297.46177931 -14.01953125 297.71875 C-2.59602604 298.09218581 5.59431106 292.98471172 14.171875 285.7109375 C22.42000362 277.92336429 31.88740882 265.27888402 32.68359375 253.53515625 C32.6990625 252.39949219 32.71453125 251.26382813 32.73046875 250.09375 C32.75625 248.96066406 32.78203125 247.82757813 32.80859375 246.66015625 C32.45009954 243.2416579 31.9520338 241.88458529 29.48046875 239.53125 C25.37119246 238.76511374 23.0382444 238.56102996 19.4609375 240.7890625 C17.33158021 242.59502627 15.42680878 244.52948693 13.48046875 246.53125 C12.87122559 247.15088623 12.26198242 247.77052246 11.63427734 248.40893555 C5.67068568 254.78057873 1.412625 261.88632938 -2.89453125 269.40625 C-3.95955774 271.24193679 -5.02741521 273.07595686 -6.09536743 274.90994263 C-7.05159195 276.55570964 -8.00133429 278.20523797 -8.95068359 279.85498047 C-10.08096271 281.78310366 -11.27978066 283.67162412 -12.51953125 285.53125 C-17.98044975 285.53125 -20.11420531 284.25128789 -24.01953125 280.40625 C-24.71046875 279.66117187 -25.40140625 278.91609375 -26.11328125 278.1484375 C-29.55025413 275.83852391 -31.50538967 276.77891887 -35.51953125 277.53125 C-38.05941399 278.11573269 -40.5764476 278.72462657 -43.09765625 279.37890625 C-43.79091003 279.55505966 -44.48416382 279.73121307 -45.19842529 279.91270447 C-47.38969176 280.46960271 -49.57973655 281.03109442 -51.76953125 281.59375 C-54.66955445 282.33870137 -57.57071493 283.07896691 -60.47265625 283.81640625 C-61.13517395 283.98825943 -61.79769165 284.16011261 -62.48028564 284.33717346 C-65.25424349 285.04178588 -67.64252293 285.53125 -70.51953125 285.53125 C-70.51953125 286.19125 -70.51953125 286.85125 -70.51953125 287.53125 C-69.81828125 287.634375 -69.11703125 287.7375 -68.39453125 287.84375 C-65.51953125 288.53125 -65.51953125 288.53125 -62.89453125 290.09375 C-59.36194126 291.59837166 -57.70531984 291.59240661 -53.95703125 291.40625 C-48.87473934 291.26870489 -48.87473934 291.26870489 -45.64453125 293.65625 C-44.94328125 294.605 -44.24203125 295.55375 -43.51953125 296.53125 C-42.59140625 297.459375 -41.66328125 298.3875 -40.70703125 299.34375 C-37.84862999 303.50884898 -38.09369961 305.591603 -38.51953125 310.53125 C-39.17953125 310.86125 -39.83953125 311.19125 -40.51953125 311.53125 C-40.64328125 310.726875 -40.76703125 309.9225 -40.89453125 309.09375 C-41.10078125 308.248125 -41.30703125 307.4025 -41.51953125 306.53125 C-44.39769907 305.09216609 -47.06314101 305.33712939 -50.26953125 305.21875 C-55.98780473 304.84378125 -59.38773585 304.5482733 -63.51953125 300.53125 C-63.75414062 299.88414062 -63.98875 299.23703125 -64.23046875 298.5703125 C-66.23765544 295.3953081 -68.9105609 294.91749655 -72.39453125 293.71875 C-73.62945312 293.27917969 -74.864375 292.83960938 -76.13671875 292.38671875 C-79.9658335 291.41227213 -79.9658335 291.41227213 -83.51953125 292.53125 C-84.62425781 292.97339844 -85.72898438 293.41554688 -86.8671875 293.87109375 C-88.10682506 294.40048104 -89.3450774 294.93312201 -90.58203125 295.46875 C-91.20658203 295.73365234 -91.83113281 295.99855469 -92.47460938 296.27148438 C-98.53343676 298.7484546 -98.53343676 298.7484546 -102.01953125 304.03125 C-103.51953125 307.53125 -103.51953125 307.53125 -106.51953125 309.53125 C-108.49418314 309.70066458 -110.47567162 309.79721621 -112.45703125 309.84375 C-117.32643067 310.07392119 -117.32643067 310.07392119 -121.14453125 312.96875 C-121.59828125 313.814375 -122.05203125 314.66 -122.51953125 315.53125 C-123.17953125 316.19125 -123.83953125 316.85125 -124.51953125 317.53125 C-124.99874422 310.18331786 -123.70371793 302.81082591 -118.95703125 296.96875 C-114.36524367 292.37696242 -109.66859161 293.28630758 -103.4140625 293.10546875 C-98.81309027 292.4270907 -96.380478 291.04011423 -92.51953125 288.53125 C-95.03973097 288.19239962 -97.56051641 287.86004665 -100.08203125 287.53125 C-101.13874023 287.38816406 -101.13874023 287.38816406 -102.21679688 287.2421875 C-110.38235579 285.83180108 -110.38235579 285.83180108 -117.89453125 288.09375 C-121.8369001 290.25266628 -125.24180242 289.55881831 -129.51953125 288.53125 C-130.53015625 288.015625 -131.54078125 287.5 -132.58203125 286.96875 C-136.490625 285.05603391 -139.20551717 285.30811134 -143.51953125 285.53125 C-142.14646568 282.14105203 -140.98311704 280.92386947 -137.64453125 279.46875 C-135.227001 278.37066175 -133.49629709 277.51153617 -131.45703125 275.78125 C-128.27858952 273.73064243 -126.2327515 273.98339783 -122.51953125 274.53125 C-121.2863192 275.50040298 -120.08075995 276.50512578 -118.89453125 277.53125 C-111.66356989 282.94493987 -101.08046198 280.98792665 -92.51953125 280.53125 C-95.68914426 276.32744302 -98.41305418 272.90595986 -103.76953125 271.953125 C-106.04380884 271.88076162 -108.31866194 271.82451764 -110.59375 271.78515625 C-113.51953125 271.53125 -113.51953125 271.53125 -116.51953125 269.28125 C-117.17953125 268.37375 -117.83953125 267.46625 -118.51953125 266.53125 C-121.99993366 262.69388324 -124.466565 260.82386927 -129.51953125 259.53125 C-128.45703125 258.03125 -128.45703125 258.03125 -126.51953125 256.53125 C-122.90116861 256.25816603 -119.72150165 256.49758827 -116.14453125 257.09375 C-115.27828125 257.238125 -114.41203125 257.3825 -113.51953125 257.53125 C-113.18953125 257.20125 -112.85953125 256.87125 -112.51953125 256.53125 C-108.93952513 256.13347154 -107.16207381 256.06236759 -104.20703125 258.21875 C-102.51953125 260.53125 -102.51953125 260.53125 -102.08203125 263.15625 C-101.89640625 263.94 -101.71078125 264.72375 -101.51953125 265.53125 C-100.83246094 265.80324219 -100.14539063 266.07523437 -99.4375 266.35546875 C-96.89428576 267.3802445 -95.24125764 268.35168504 -93.06640625 269.94921875 C-92.44636719 270.39845703 -91.82632813 270.84769531 -91.1875 271.31054688 C-89.91332684 272.24606505 -88.65005056 273.19661663 -87.3984375 274.16210938 C-82.89692518 277.36885681 -80.28586613 277.70541996 -74.89950562 276.95237732 C-71.27622926 276.31125249 -67.74951376 275.43988232 -64.203125 274.46484375 C-63.461194 274.26649429 -62.719263 274.06814484 -61.95484924 273.86378479 C-59.62054288 273.2382356 -57.28880205 272.60367754 -54.95703125 271.96875 C-53.36018799 271.53911116 -51.76318395 271.11006946 -50.16601562 270.68164062 C-46.28196451 269.63839195 -42.40018436 268.58706504 -38.51953125 267.53125 C-39.45543629 266.4257311 -40.39332983 265.32189547 -41.33203125 264.21875 C-42.11513672 263.29642578 -42.11513672 263.29642578 -42.9140625 262.35546875 C-44.46284914 260.50390696 -44.46284914 260.50390696 -46.28125 259.05078125 C-47.51953125 257.53125 -47.51953125 257.53125 -47.49194336 255.45068359 C-46.51953125 253.53125 -46.51953125 253.53125 -44.54516602 252.52978516 C-43.2659729 252.17859619 -43.2659729 252.17859619 -41.9609375 251.8203125 C-40.55255615 251.41244507 -40.55255615 251.41244507 -39.11572266 250.99633789 C-37.61404541 250.58049438 -37.61404541 250.58049438 -36.08203125 250.15625 C-19.72599712 245.27504097 -9.35973498 238.58942939 -0.99609375 223.3515625 C-0.50882813 222.42085937 -0.0215625 221.49015625 0.48046875 220.53125 C0.84398437 219.86867188 1.2075 219.20609375 1.58203125 218.5234375 C3.8799346 213.90615506 3.7877787 209.55064589 3.48046875 204.53125 C2.16046875 204.20125 0.84046875 203.87125 -0.51953125 203.53125 C-2.79098882 207.21894769 -4.7944664 210.99052768 -6.76953125 214.84375 C-10.89071511 222.51349006 -15.57099208 229.47242149 -23.51953125 233.53125 C-27.68381838 234.02116613 -28.98522469 233.88745437 -32.51953125 231.53125 C-32.18282351 228.57626271 -31.953212 226.96393834 -29.8125 224.828125 C-29.11769531 224.31765625 -28.42289062 223.8071875 -27.70703125 223.28125 C-22.37450985 218.92349058 -20.64150023 213.89715695 -18.51953125 207.53125 C-18.26949161 203.98946402 -18.26949161 203.98946402 -18.51953125 200.53125 C-20.34656352 198.2820592 -20.34656352 198.2820592 -23.01953125 198.28125 C-25.69249898 198.2820592 -25.69249898 198.2820592 -27.51953125 200.53125 C-28.37269172 203.06751617 -29.1524902 205.58804708 -29.89453125 208.15625 C-33.75423083 220.83051748 -39.41364063 231.90188194 -51.54296875 238.69140625 C-55.99077271 240.58128343 -59.79769594 241.1540415 -64.45703125 239.46875 C-66.51953125 237.53125 -66.51953125 237.53125 -67.70703125 234.65625 C-67.51953125 231.53125 -67.51953125 231.53125 -65.08203125 228.90625 C-62.06679281 226.70953337 -58.82411035 225.158643 -55.47265625 223.546875 C-48.07447554 219.69982103 -45.04504022 214.10777692 -42.51953125 206.53125 C-42.42685537 204.82492352 -42.38954923 203.11508413 -42.39453125 201.40625 C-42.39066406 200.07207031 -42.39066406 200.07207031 -42.38671875 198.7109375 C-42.2765114 196.55333912 -42.2765114 196.55333912 -43.51953125 195.53125 C-46.56237279 195.16242072 -48.00866978 195.15461488 -50.51171875 197 C-51.13304687 197.6703125 -51.754375 198.340625 -52.39453125 199.03125 C-53.43867188 200.14306641 -53.43867188 200.14306641 -54.50390625 201.27734375 C-56.81647672 203.86329949 -59.10412637 206.46776064 -61.37109375 209.09375 C-66.6106426 215.03825633 -72.06611822 220.78361788 -77.51953125 226.53125 C-78.16083984 227.2133252 -78.80214844 227.89540039 -79.46289062 228.59814453 C-96.40151758 246.53491023 -96.40151758 246.53491023 -109.01953125 247.09375 C-116.38825038 246.77223749 -123.38151753 245.20228106 -128.64453125 239.71875 C-130.85399679 235.96265858 -131.09688476 233.82016179 -130.51953125 229.53125 C-127.44910173 226.46082048 -123.76878381 227.23396188 -119.64453125 227.15625 C-103.13316684 226.54196721 -90.83545514 220.72140551 -79.33984375 208.81640625 C-72.40185595 201.01787393 -63.02767393 190.35211113 -63.51953125 179.53125 C-67.8482685 180.90340664 -69.93648063 182.76208719 -72.83203125 186.21875 C-83.1096676 198.0058082 -97.8863962 209.4603693 -114.10546875 210.734375 C-124.06182772 210.90170876 -124.06182772 210.90170876 -128.51953125 207.53125 C-131.1436369 204.27373954 -132.39819588 201.43259849 -132.95703125 197.28125 C-132.51953125 194.53125 -132.51953125 194.53125 -131.51953125 192.59375 C-128.78653814 191.14184741 -126.71861949 191.83238426 -123.74853516 192.24926758 C-107.98038043 194.24403414 -95.29620917 191.30693606 -82.51953125 181.53125 C-72.65417722 173.12877568 -72.65417722 173.12877568 -66.91015625 161.9765625 C-66.86375 161.21085938 -66.81734375 160.44515625 -66.76953125 159.65625 C-66.68445313 158.48449219 -66.68445313 158.48449219 -66.59765625 157.2890625 C-66.571875 156.70898438 -66.54609375 156.12890625 -66.51953125 155.53125 C-71.90409971 155.96228073 -74.67563566 156.98158444 -78.76953125 160.46875 C-84.06785236 164.65765108 -89.53379218 167.90823099 -95.51953125 171.03125 C-96.34485352 171.46429443 -97.17017578 171.89733887 -98.02050781 172.34350586 C-106.4256496 176.65930933 -114.09489604 177.45422842 -123.51953125 176.53125 C-127.0217906 175.00852854 -128.65260935 172.71341623 -130.89453125 169.65625 C-131.82468289 166.49373442 -131.81693637 163.8027063 -131.51953125 160.53125 C-130.32226562 158.83959961 -130.32226562 158.83959961 -128.51953125 157.53125 C-126.15039062 157.16235352 -126.15039062 157.16235352 -123.36328125 157.16015625 C-122.33976562 157.14275391 -121.31625 157.12535156 -120.26171875 157.10742188 C-118.13152299 157.09843912 -116.00130804 157.09311835 -113.87109375 157.09179688 C-98.35784468 156.81132043 -87.12903896 149.47418547 -75.39453125 139.96875 C-74.82557129 139.52200928 -74.25661133 139.07526855 -73.67041016 138.61499023 C-70.83797667 136.24134339 -69.59210993 134.81077602 -68.65234375 131.19140625 C-68.60851562 130.31355469 -68.5646875 129.43570313 -68.51953125 128.53125 C-72.65977399 129.81552027 -76.37453581 131.3880464 -80.20703125 133.40625 C-92.64238413 139.70068788 -108.86692828 145.99705635 -122.94921875 141.80859375 C-126.17218869 140.35058354 -128.19682751 138.90437619 -130.51953125 136.21875 C-131.81815131 132.7287086 -131.98984135 130.22654362 -131.51953125 126.53125 C-129.89453125 124.09375 -129.89453125 124.09375 -127.51953125 122.53125 C-123.47659591 121.77907598 -121.0859794 122.68706676 -117.58203125 124.53125 C-109.67125873 128.26652202 -100.06442884 127.72788208 -91.89453125 124.96875 C-82.88729312 121.16420016 -73.19829265 116.83129153 -66.51953125 109.53125 C-65.93176491 106.2758844 -65.93176491 106.2758844 -66.51953125 103.53125 C-71.25290607 103.8539801 -74.96458538 105.02965713 -79.33203125 106.90625 C-81.39444833 107.78144544 -83.45694382 108.65645611 -85.51953125 109.53125 C-86.27621094 109.85996094 -87.03289062 110.18867188 -87.8125 110.52734375 C-93.66156084 112.69097864 -99.47201821 112.8716732 -105.64453125 112.96875 C-106.49208984 112.99106689 -107.33964844 113.01338379 -108.21289062 113.03637695 C-115.08082351 113.01158055 -120.22613573 111.30701951 -125.5078125 106.85546875 C-129.45263342 101.97971664 -132.15832333 97.66171865 -132.89453125 91.28125 C-132.51953125 88.53125 -132.51953125 88.53125 -131.33203125 86.65625 C-128.86028511 85.12206274 -127.40289233 85.23745775 -124.51953125 85.53125 C-122.16015625 86.921875 -122.16015625 86.921875 -119.76953125 88.78125 C-110.00788064 95.84805433 -102.74166213 97.61202795 -90.51953125 96.53125 C-83.03898525 95.15981657 -73.77546387 91.16047426 -68.6796875 85.48046875 C-67.27388622 83.58037924 -67.27388622 83.58037924 -67.83203125 81.28125 C-68.05890625 80.70375 -68.28578125 80.12625 -68.51953125 79.53125 C-72.66046823 79.32154441 -72.66046823 79.32154441 -76.51953125 80.53125 C-91.70179717 83.02569937 -109.35500714 82.9595602 -122.49609375 74.140625 C-127.3427464 70.28575841 -130.95202246 65.88797134 -131.7734375 59.58203125 C-131.97255107 56.10717837 -131.76990401 53.92606858 -129.89453125 50.96875 C-127.51953125 49.53125 -127.51953125 49.53125 -124.6640625 49.70703125 C-121.11800627 50.63649444 -119.53208349 51.84249314 -116.83203125 54.28125 C-106.52225062 62.96891689 -96.93685638 64.71143928 -83.89453125 64.71875 C-82.73695313 64.73099609 -81.579375 64.74324219 -80.38671875 64.75585938 C-79.28328125 64.75779297 -78.17984375 64.75972656 -77.04296875 64.76171875 C-76.03153809 64.76582764 -75.02010742 64.76993652 -73.97802734 64.77416992 C-71.34155867 64.7760445 -71.34155867 64.7760445 -69.51953125 62.53125 C-69.35275843 58.94781024 -69.35275843 58.94781024 -69.51953125 55.53125 C-72.39417652 54.09392736 -75.20288196 54.06793862 -78.39453125 53.71875 C-96.33505234 51.46576427 -114.90068866 43.2144521 -127.1953125 29.6875 C-131.73513326 23.79510728 -134.4867455 16.99261709 -133.51953125 9.53125 C-131.76459044 6.43085457 -130.03127458 4.04299333 -127.51953125 1.53125 C-124.1953125 1.5 -124.1953125 1.5 -120.51953125 2.53125 C-118.57973047 4.72066855 -117.20205041 6.57569053 -115.70703125 9.03125 C-105.44364062 24.47330799 -89.13327538 35.0517589 -70.89453125 38.78125 C-69.43793788 39.04119589 -67.98016519 39.29506238 -66.51953125 39.53125 C-66.05546875 38.5721875 -66.05546875 38.5721875 -65.58203125 37.59375 C-64.51953125 35.53125 -64.51953125 35.53125 -63.51953125 34.53125 C-59.14566523 34.22490309 -56.11967691 34.81662959 -52.1328125 36.5859375 C-51.12025391 37.03146973 -50.10769531 37.47700195 -49.06445312 37.93603516 C-47.99775391 38.42120605 -46.93105469 38.90637695 -45.83203125 39.40625 C-44.73310547 39.89786621 -43.63417969 40.38948242 -42.50195312 40.89599609 C-16.27799048 52.77279077 -16.27799048 52.77279077 -12.51953125 56.53125 C-12.61269532 58.16011857 -12.77106426 59.78535252 -12.95703125 61.40625 C-14.52169761 74.63292051 -14.52169761 74.63292051 -9.51953125 86.53125 C-6.42663408 89.44221205 -3.69393364 89.76531255 0.41796875 89.96875 C5.18289703 89.79148332 7.97449224 88.95171489 11.48046875 85.53125 C15.01474335 79.81996975 15.51560605 73.04652596 14.48046875 66.53125 C10.58880804 54.73417656 2.59030061 46.39053341 -8.26953125 40.65625 C-17.02515185 36.62393176 -25.97386001 34.13837119 -35.43530273 32.44628906 C-41.79038074 31.30277098 -47.73821893 30.17110337 -52.51953125 25.53125 C-53.01453125 24.04625 -53.01453125 24.04625 -53.51953125 22.53125 C-52.86726563 22.7478125 -52.215 22.964375 -51.54296875 23.1875 C-42.92075272 26.05926603 -42.92075272 26.05926603 -34.34765625 24.0078125 C-33.414375 23.52054688 -32.48109375 23.03328125 -31.51953125 22.53125 C-32.22972412 22.51666748 -32.93991699 22.50208496 -33.67163086 22.48706055 C-36.93393903 22.41193375 -40.19529523 22.31548867 -43.45703125 22.21875 C-44.57400391 22.19619141 -45.69097656 22.17363281 -46.84179688 22.15039062 C-54.30836094 21.90953372 -61.55624852 21.51254289 -67.7109375 16.8828125 C-71.43502421 12.19322183 -71.43502421 12.19322183 -71.89453125 8.59375 C-71.70890625 7.5728125 -71.70890625 7.5728125 -71.51953125 6.53125 C-69.76953125 5.828125 -69.76953125 5.828125 -67.51953125 5.53125 C-65.51953125 6.859375 -65.51953125 6.859375 -63.51953125 8.78125 C-54.58607528 17.22615759 -46.54247769 17.83479883 -34.51953125 18.53125 C-37.55093533 14.54805022 -39.79013346 12.36509812 -44.51953125 10.53125 C-48.17271784 10.09634683 -50.36757621 10.66342479 -53.51953125 12.53125 C-53.83203125 9.78125 -53.83203125 9.78125 -53.51953125 6.53125 C-50.76483934 3.6576877 -49.11701837 2.61423432 -45.14453125 2.0625 C-42.72786458 2.04166667 -40.31119792 2.02083333 -37.89453125 2 C-33.93102129 1.44951251 -32.4237745 0.19643996 -29.51953125 -2.46875 C-19.24441746 -7.24787269 -9.97154756 -3.51039174 0 0 Z " fill="#020000" transform="translate(270.51953125,136.46875)"/>
<path d="M0 0 C0.33 1.32 0.66 2.64 1 4 C1.515625 3.484375 2.03125 2.96875 2.5625 2.4375 C5 1 5 1 8.375 1.0625 C12.36189145 2.09359262 14.81424839 3.40694637 18 6 C19.16796875 8.13671875 19.16796875 8.13671875 20 10 C12.64657821 10.20177072 6.05112439 10.21211746 -1 8 C-0.67 7.34 -0.34 6.68 0 6 C0.039992 4.00039988 0.04346799 1.99952758 0 0 Z " fill="#EA0000" transform="translate(216,145)"/>
<path d="M0 0 C0.33 0 0.66 0 1 0 C1 2.64 1 5.28 1 8 C-5.75887425 10.07965362 -11.95559921 10.21133202 -19 10 C-16.98298944 5.15917466 -13.59746748 3.23229635 -9 1 C-5.59569733 0.38103588 -4.58431077 0.62098761 -1.6875 2.5 C-1.130625 2.995 -0.57375 3.49 0 4 C0 2.68 0 1.36 0 0 Z " fill="#EC0000" transform="translate(427,145)"/>
<path d="M0 0 C2.5625 1.5 2.5625 1.5 4 3 C3.625 4.9375 3.625 4.9375 3 7 C0.27457733 8.36271133 -1.96087274 8.16923601 -5 8.1875 C-6.0725 8.20167969 -7.145 8.21585938 -8.25 8.23046875 C-11 8 -11 8 -13 6 C-12.8125 4 -12.8125 4 -12 2 C-7.98677954 -0.67548031 -4.71626345 -0.58740465 0 0 Z " fill="#F20000" transform="translate(394,144)"/>
<path d="M0 0 C3 1.5 3 1.5 5 3 C4.625 4.9375 4.625 4.9375 4 7 C1.27457733 8.36271133 -0.96087274 8.16923601 -4 8.1875 C-5.0725 8.20167969 -6.145 8.21585938 -7.25 8.23046875 C-10 8 -10 8 -12 6 C-11.8125 4 -11.8125 4 -11 2 C-7.30441172 -0.46372552 -4.28955801 -0.57583561 0 0 Z " fill="#F30000" transform="translate(258,144)"/>
<path d="M0 0 C3.45831586 -0.02894547 6.91660072 -0.04678 10.375 -0.0625 C11.35984375 -0.07087891 12.3446875 -0.07925781 13.359375 -0.08789062 C14.77089844 -0.09272461 14.77089844 -0.09272461 16.2109375 -0.09765625 C17.51490479 -0.10551147 17.51490479 -0.10551147 18.84521484 -0.11352539 C21 0 21 0 23 1 C22.67 1.66 22.34 2.32 22 3 C19.6817571 3.42579972 17.34260643 3.7397104 15 4 C14.34128906 4.13921875 13.68257813 4.2784375 13.00390625 4.421875 C8.95346606 5.21143449 6.63815528 5.1456373 3 3.0625 C2.01 2.381875 1.02 1.70125 0 1 C0 0.67 0 0.34 0 0 Z " fill="#CD0000" transform="translate(404,158)"/>
<path d="M0 0 C6.6 0 13.2 0 20 0 C15.04247788 4.95752212 15.04247788 4.95752212 10.74609375 5.046875 C9.98425781 4.94890625 9.22242188 4.8509375 8.4375 4.75 C7.29087891 4.61851562 7.29087891 4.61851562 6.12109375 4.484375 C4 4 4 4 1 2 C0.67 1.34 0.34 0.68 0 0 Z " fill="#CB0000" transform="translate(220,158)"/>
</svg>
